<?xml version="1.0" encoding="UTF-8" standalone="no"?>
<!-- Created with Inkscape (http://www.inkscape.org/) -->

<svg
   width="52.916672mm"
   height="52.916672mm"
   viewBox="0 0 52.916672 52.916672"
   version="1.1"
   id="svg1"
   inkscape:version="1.2.2 (b0a8486541, 2022-12-01)"
   sodipodi:docname="icon.svg"
   xml:space="preserve"
   inkscape:export-filename="icon_240.png"
   inkscape:export-xdpi="115.19999"
   inkscape:export-ydpi="115.19999"
   xmlns:inkscape="http://www.inkscape.org/namespaces/inkscape"
   xmlns:sodipodi="http://sodipodi.sourceforge.net/DTD/sodipodi-0.dtd"
   xmlns="http://www.w3.org/2000/svg"
   xmlns:svg="http://www.w3.org/2000/svg"><sodipodi:namedview
     id="namedview1"
     pagecolor="#ffffff"
     bordercolor="#666666"
     borderopacity="1.0"
     inkscape:showpageshadow="2"
     inkscape:pageopacity="0.0"
     inkscape:pagecheckerboard="0"
     inkscape:deskcolor="#d1d1d1"
     inkscape:document-units="mm"
     inkscape:zoom="4.9590476"
     inkscape:cx="5.1421164"
     inkscape:cy="68.964855"
     inkscape:window-width="3200"
     inkscape:window-height="1731"
     inkscape:window-x="0"
     inkscape:window-y="0"
     inkscape:window-maximized="1"
     inkscape:current-layer="layer1"
     showgrid="false" /><defs
     id="defs1"><linearGradient
       id="linearGradient3283"
       inkscape:swatch="solid"><stop
         style="stop-color:#000000;stop-opacity:1;"
         offset="0"
         id="stop3281" /></linearGradient><inkscape:path-effect
       effect="bspline"
       id="path-effect3"
       is_visible="true"
       lpeversion="1.3"
       weight="33.333333"
       steps="2"
       helper_size="0"
       apply_no_weight="true"
       apply_with_weight="true"
       only_selected="false"
       uniform="false" /></defs><g
     inkscape:label="Layer 1"
     inkscape:groupmode="layer"
     id="layer1"
     transform="translate(-78.541459,-121.65149)"><rect
       style="fill:#ffffff;fill-opacity:1;stroke:none;stroke-width:1.73054;stroke-linecap:round;stroke-opacity:1;paint-order:markers stroke fill"
       id="rect1256"
       width="52.916679"
       height="52.916683"
       x="78.541458"
       y="121.65149" /><path
       id="rect2"
       style="fill:#6fda44;fill-opacity:1;stroke-width:0.264583;stroke-linecap:round;paint-order:markers stroke fill"
       d="m 109.24398,143.86564 1.44797,-1.44798 c -0.53646,0.40013 -1.02486,0.88335 -1.44797,1.44798 z" /><path
       id="path9"
       style="fill:#6fda44;fill-opacity:1;stroke-width:0.264583;stroke-linecap:round;paint-order:markers stroke fill"
       d="m 107.20793,145.90169 0.10438,0.20464 0.31006,-0.61909 z" /><path
       style="fill:#cccccc;fill-opacity:1;stroke-width:0.264583;stroke-linecap:round;paint-order:markers stroke fill"
       d="m 114.81935,144.90898 c -1.76721,0.0925 -3.21316,1.71047 -3.60598,4.32997 l -0.18759,1.24902 1.41904,0.66043 c 1.72414,0.80262 3.23455,0.84703 4.4111,0.1297 2.19022,-1.33533 2.08073,-4.75941 -0.18966,-5.93348 -0.63324,-0.32746 -1.25784,-0.46646 -1.84691,-0.43564 z"
       id="path3426" /><path
       style="fill:#cccccc;fill-opacity:1;stroke-width:0.264583;stroke-linecap:round;paint-order:markers stroke fill"
       d="m 36.849758,153.46897 c 0.0902,0.13897 0.17553,0.26834 0.27854,0.43356 1.77773,2.85156 1.73056,2.26589 0.61184,7.60781 -0.55608,2.65529 -1.0657,5.0955 -1.13223,5.42292 l -0.12092,0.59531 h 1.603 c 0.8815,0 1.66865,-0.10678 1.74925,-0.23719 0.0806,-0.13041 0.44531,-1.64846 0.8108,-3.37344 0.36549,-1.72497 0.72866,-3.41687 0.80719,-3.75998 0.16195,-0.70751 0.31426,-0.69498 2.89646,0.23875 6.44207,2.32945 12.24331,-4.10948 9.24182,-10.25777 -2.11923,-4.34103 -7.41649,-5.13283 -10.8257,-2.59003 l -1.44797,1.44798 c -0.37372,0.49872 -0.69872,1.05721 -0.95498,1.6831 -0.37657,0.91969 -0.8159,1.15328 -1.37615,0.64802 z m 8.63255,-3.93206 h 1.44694 c 3.1897,0 5.11408,3.01764 3.7083,5.81566 -1.09725,2.18394 -3.74374,2.75726 -6.43475,1.39423 -2.11104,-1.06926 -1.98323,-3.94714 0.27543,-6.20582 z"
       id="path8" /><path
       id="path7"
       style="fill:#6fda44;fill-opacity:1;stroke-width:0.264583;stroke-linecap:round;paint-order:markers stroke fill"
       d="m 103.93991,149.16971 0.36432,-0.36432 -0.3576,-0.56328 -0.003,0.85008 c -8e-5,0.0265 -0.003,0.0512 -0.004,0.0775 z" /><path
       id="path6"
       style="fill:#6fda44;fill-opacity:1;stroke-width:0.264583;stroke-linecap:round;paint-order:markers stroke fill"
       d="m 97.518079,155.59154 c 2.670951,-0.49811 5.055591,-2.48348 5.690091,-5.6901 z" /><path
       id="path5"
       style="fill:#6fda44;fill-opacity:1;stroke-width:0.264583;stroke-linecap:round;paint-order:markers stroke fill"
       d="m 55.822253,143.74144 5.690091,-5.6901 c 0.0669,-0.33815 0.12064,-0.68553 0.14676,-1.05058 0.14244,-1.99081 0.36502,-2.13448 1.41697,-0.51314 l 2.14095,-2.14096 c -0.67809,-0.61154 -1.53391,-2.30918 -2.67787,-5.23069 l -0.77721,-1.98437 -1.74253,-0.078 -1.742531,-0.0786 v 5.47098 5.47099 l -0.533301,0.86299 c -1.505511,2.43598 -5.36555,2.19969 -6.676078,-0.40876 l -0.462504,-0.92087 -5.17e-4,-5.22552 -5.17e-4,-5.22552 H 48.85782 47.11219 l 0.09974,5.62239 0.09974,5.6224 0.549837,1.20406 c 1.618797,3.54525 4.965815,4.8518 7.960755,4.29328 z" /><path
       id="path4"
       style="fill:#cccccc;fill-opacity:1;stroke-width:0.264583;stroke-linecap:round;paint-order:markers stroke fill"
       d="m 131.45813,121.65149 -19.28927,19.28926 c 4.69816,-1.81453 10.68979,1.21917 10.68979,7.43366 0,5.67283 -5.3801,9.36006 -10.84792,7.43468 -0.87313,-0.30746 -1.6938,-0.58776 -1.82417,-0.62321 -0.13036,-0.0355 -0.59176,1.60228 -1.02526,3.63957 -0.4335,2.03729 -0.92199,3.79156 -1.08573,3.89847 -0.60368,0.39416 -3.87561,0.23054 -4.04161,-0.20206 h 5.2e-4 c -0.0853,-0.22237 0.34329,-2.76442 0.95239,-5.64926 l 1.10743,-5.24516 -1.07384,-1.69292 -0.71623,-1.12913 -0.36432,0.36432 c -0.0536,4.19179 -3.37127,6.67628 -6.956166,6.95616 l -18.442285,18.44229 h 52.916671 z" /><path
       id="path3"
       style="fill:#6fda44;fill-opacity:1;stroke-width:0.264583;stroke-linecap:round;paint-order:markers stroke fill"
       d="m 78.541459,121.65149 v 52.91667 l 18.442285,-18.44229 c -3.099831,0.24201 -6.397143,-1.16218 -7.951969,-4.54391 l -0.56224,-1.22318 -0.0031,-5.95312 -0.0036,-5.95313 2.182813,-0.077 2.182812,-0.077 v 5.3113 c 0,7.76824 2.22872,10.59366 5.654952,7.1701 l 0.82734,-0.82682 0.132292,-5.75055 0.132291,-5.75004 2.144055,-0.0765 2.14354,-0.076 0.71624,1.92804 c 0.3938,1.06057 1.1697,2.81745 1.72444,3.90364 l 0.90434,1.76992 0.41444,-0.41445 0.28112,-0.56172 c 1.01539,-2.02757 2.55548,-3.32437 4.26537,-3.98477 l 19.28927,-19.28926 z" /><path
       style="fill:#000000"
       id="path1"
       d="" /><rect
       style="fill:#ffffff;fill-opacity:0;stroke-width:0.264583;stroke-linecap:round;paint-order:markers stroke fill"
       id="rect3"
       width="52.916672"
       height="52.916672"
       x="78.541458"
       y="121.65149" /><rect
       style="fill:#ffffff;fill-opacity:0;stroke:none;stroke-width:0.781;stroke-linecap:round;paint-order:markers stroke fill"
       id="rect541"
       width="52.916672"
       height="52.916672"
       x="78.541458"
       y="121.65149" /></g></svg>
